<svg width="331" height="100" viewBox="0 0 331 100" fill="none" xmlns="http://www.w3.org/2000/svg">
<path d="M191.401 94.2534V92.5298C190.725 93.5 189.607 94.4935 187.435 94.4935C184.482 94.4935 182.033 91.933 182.033 88.6424C182.033 85.3519 184.479 82.7914 187.435 82.7914C189.333 82.7914 190.452 83.6749 191.213 84.6017V78.2206H193.344V94.2534H191.401ZM184.183 88.6424C184.183 90.6961 185.661 92.3731 187.687 92.3731C189.713 92.3731 191.191 90.6961 191.191 88.6424C191.191 86.5887 189.693 84.9084 187.687 84.9084C185.68 84.9084 184.183 86.6087 184.183 88.6424Z" fill="white"/>
<path d="M198.004 77.9972C198.762 77.9972 199.377 78.6607 199.377 79.4308C199.377 80.2009 198.765 80.8677 198.004 80.8677C197.243 80.8677 196.653 80.2276 196.653 79.4308C196.653 78.634 197.224 77.9972 198.004 77.9972ZM196.946 94.2534V83.0348H199.055V94.2534H196.946Z" fill="white"/>
<path d="M210.873 92.2864C210.092 93.2366 208.974 93.9867 207.076 93.9867C204.142 93.9867 201.696 91.6663 201.696 88.3991C201.696 85.1318 204.142 82.7914 207.076 82.7914C209.271 82.7914 210.347 83.7849 211.022 84.7551V83.0348H212.985V93.3266C212.985 97.2806 210.452 99.0243 207.413 99.0243C204.585 99.0243 203.005 97.634 202.307 96.2204L204.059 95.1603C204.543 96.0204 205.579 96.9706 207.394 96.9706C209.315 96.9706 210.854 95.8671 210.854 93.5466L210.876 92.2864H210.873ZM210.854 88.3991C210.854 86.3687 209.357 84.9084 207.35 84.9084C205.343 84.9084 203.827 86.3654 203.827 88.3991C203.827 90.4328 205.324 91.8663 207.35 91.8663C209.376 91.8663 210.854 90.4528 210.854 88.3991Z" fill="white"/>
<path d="M217.645 77.9972C218.403 77.9972 219.018 78.6607 219.018 79.4308C219.018 80.2009 218.406 80.8677 217.645 80.8677C216.883 80.8677 216.294 80.2276 216.294 79.4308C216.294 78.634 216.864 77.9972 217.645 77.9972ZM216.59 94.2534V83.0348H218.699V94.2534H216.59Z" fill="white"/>
<path d="M222.604 85.0651H220.684V83.0348H221.674C222.35 83.0348 222.623 82.7047 222.687 82.0413L222.856 79.8342H224.732V83.0348H227.835V85.0651H224.732V90.4994C224.732 91.8697 225.385 92.3098 226.274 92.3098C227.013 92.3098 227.414 92.2664 228.045 92.1131V94.2101C227.392 94.3635 226.822 94.4535 226.105 94.4535C223.996 94.4535 222.601 93.1066 222.601 90.6561V85.0685L222.604 85.0651Z" fill="white"/>
<path d="M234.925 84.8651C233.364 84.8651 232.562 85.6386 232.014 86.4787L230.243 85.3952C230.982 84.0916 232.31 82.7881 234.925 82.7881C237.54 82.7881 239.21 84.445 239.21 86.6954V94.2468H237.247V92.5698C236.572 93.6967 235.349 94.4901 233.533 94.4901C231.425 94.4901 229.841 93.2099 229.841 91.1996C229.841 89.1892 231.192 88.219 233.027 87.9323L236.254 87.4222C236.846 87.3355 237.098 87.0922 237.098 86.6287C237.098 85.8986 236.445 84.8618 234.925 84.8618V84.8651ZM237.098 89.0858L233.702 89.6159C232.584 89.7926 231.972 90.2327 231.972 91.1395C231.972 92.133 232.775 92.4865 233.852 92.4865C235.836 92.4865 237.101 91.3829 237.101 89.4826V89.0858H237.098Z" fill="white"/>
<path d="M242.605 94.2534V78.2206H244.736V94.2534H242.605Z" fill="white"/>
<path d="M260.666 92.2864C259.886 93.2366 258.768 93.9867 256.869 93.9867C253.935 93.9867 251.489 91.6663 251.489 88.3991C251.489 85.1318 253.935 82.7914 256.869 82.7914C259.064 82.7914 260.14 83.7849 260.816 84.7551V83.0348H262.778V93.3266C262.778 97.2806 260.245 99.0243 257.207 99.0243C254.378 99.0243 252.798 97.634 252.101 96.2204L253.853 95.1603C254.337 96.0204 255.372 96.9706 257.188 96.9706C259.108 96.9706 260.647 95.8671 260.647 93.5466L260.669 92.2864H260.666ZM260.644 88.3991C260.644 86.3687 259.147 84.9084 257.14 84.9084C255.133 84.9084 253.617 86.3654 253.617 88.3991C253.617 90.4328 255.114 91.8663 257.14 91.8663C259.166 91.8663 260.644 90.4528 260.644 88.3991Z" fill="white"/>
<path d="M266.065 83.0348H268.005V85.3085C268.448 84.1183 269.483 82.8147 272.14 82.8147V85.1785C269.187 85.1785 268.174 87.0121 268.174 89.1325V94.2568H266.065V83.0348Z" fill="white"/>
<path d="M278.915 82.7914C282.1 82.7914 284.569 85.3752 284.569 88.6424C284.569 91.9097 282.1 94.4935 278.915 94.4935C275.729 94.4935 273.261 91.9097 273.261 88.6424C273.261 85.3752 275.707 82.7914 278.915 82.7914ZM282.419 88.6424C282.419 86.6087 280.922 84.9084 278.915 84.9084C276.908 84.9084 275.411 86.6087 275.411 88.6424C275.411 90.6761 276.889 92.3731 278.915 92.3731C280.941 92.3731 282.419 90.6961 282.419 88.6424Z" fill="white"/>
<path d="M286.7 89.3959V83.0348H288.808V89.0858C288.808 91.4263 289.799 92.3998 291.319 92.3998C292.838 92.3998 293.829 91.4296 293.829 89.0858V83.0348H295.937V89.3959C295.937 93.0166 293.574 94.4968 291.315 94.4968C289.057 94.4968 286.693 93.0166 286.693 89.3959H286.7Z" fill="white"/>
<path d="M299.062 83.0348H300.983V84.7551C301.658 83.7849 302.776 82.7914 304.971 82.7914C307.905 82.7914 310.351 85.3519 310.351 88.6424C310.351 91.933 307.905 94.4935 304.971 94.4935C303.05 94.4935 301.954 93.6333 301.174 92.6832V98.7776H299.065V83.0314L299.062 83.0348ZM308.22 88.6424C308.22 86.6087 306.723 84.9084 304.716 84.9084C302.709 84.9084 301.193 86.6087 301.193 88.6424C301.193 90.6761 302.69 92.3731 304.716 92.3731C306.742 92.3731 308.22 90.6961 308.22 88.6424Z" fill="white"/>
<path d="M22.5809 30.6455C16.8887 30.6455 13.5855 33.1426 11.1073 36.6999L1.56082 30.9355C4.95639 24.4043 11.566 19.2134 22.5809 19.2134C33.5958 19.2134 42.5912 25.7446 42.5912 36.6999V69.7491H31.4839V62.8312C28.7318 67.6354 23.4983 70.8059 16.43 70.8059C7.24984 70.8059 0 65.1383 0 56.2033C0 47.2684 5.6922 43.2344 14.5029 41.7908L26.8015 39.8704C29.646 39.3903 30.5665 38.2368 30.5665 36.5065C30.5665 33.816 27.9036 30.6455 22.5809 30.6455ZM30.5665 48.1319L18.7266 49.9589C14.1365 50.6323 12.117 52.3626 12.117 55.4365C12.117 58.7038 14.6876 60.144 18.7266 60.144C25.8873 60.144 30.5665 55.8199 30.5665 49.4788V48.1319Z" fill="white"/>
<path d="M98.2327 69.7491H87.4026V63.0245C83.9146 67.3486 79.6017 70.8059 71.2465 70.8059C58.4892 70.8059 47.933 59.7573 47.933 45.058C47.933 30.3587 58.4892 19.2134 71.2465 19.2134C78.6811 19.2134 82.9049 22.1906 86.2081 25.9379V0H98.2327V69.7491ZM60.05 45.058C60.05 52.5527 65.5575 58.6038 73.0844 58.6038C80.6114 58.6038 86.1189 52.5527 86.1189 45.058C86.1189 37.5633 80.6114 31.4156 73.0844 31.4156C65.5575 31.4156 60.05 37.5633 60.05 45.058Z" fill="white"/>
<path d="M126.729 30.6455C121.037 30.6455 117.733 33.1426 115.255 36.6999L105.709 30.9355C109.104 24.4043 115.714 19.2134 126.729 19.2134C137.744 19.2134 146.739 25.7446 146.739 36.6999V69.7491H135.632V62.8312C132.876 67.6354 127.646 70.8059 120.578 70.8059C111.398 70.8059 104.148 65.1383 104.148 56.2033C104.148 47.2684 109.84 43.2344 118.651 41.7908L130.953 39.8704C133.797 39.3903 134.718 38.2368 134.718 36.5065C134.718 33.816 132.055 30.6455 126.732 30.6455H126.729ZM134.714 48.1319L122.875 49.9589C118.284 50.6323 116.265 52.3626 116.265 55.4365C116.265 58.7038 118.836 60.144 122.875 60.144C130.035 60.144 134.714 55.8199 134.714 49.4788V48.1319Z" fill="white"/>
<path d="M154.655 20.2703H165.396V26.9948C168.884 22.6707 173.289 19.2134 181.641 19.2134C194.401 19.2134 204.865 30.262 204.865 45.058C204.865 59.854 194.401 70.8059 181.641 70.8059C174.206 70.8059 169.983 67.9221 166.679 64.0814V94.2468H154.655V20.2703ZM192.837 44.9613C192.837 37.4667 187.33 31.4156 179.803 31.4156C172.276 31.4156 166.769 37.4667 166.769 44.9613C166.769 52.456 172.276 58.6038 179.803 58.6038C187.33 58.6038 192.837 52.5527 192.837 44.9613Z" fill="white"/>
<path d="M206.55 31.9924V20.2736H210.223C213.252 20.2736 214.539 18.8333 214.813 15.6628L215.641 6.44115H226.382V20.2769H238.773V31.9957H226.382V51.8826C226.382 56.7834 229.042 58.5104 232.715 58.5104C235.652 58.5104 237.212 58.317 239.691 57.7403V69.6524C236.754 70.3258 234.275 70.7092 230.51 70.7092C221.149 70.7092 214.265 64.9449 214.265 52.9361V31.9924H206.55Z" fill="white"/>
<path d="M290.621 49.6688H256.015C257.761 55.9133 262.991 59.3706 268.865 59.3706C273.637 59.3706 276.851 58.217 280.982 54.9498L287.958 63.0212C282.177 68.4022 276.118 70.8026 268.499 70.8026C254.088 70.8026 243.347 59.754 243.347 44.958C243.347 30.162 254.177 19.2101 268.499 19.2101C282.82 19.2101 291.446 30.3554 291.446 43.4211C291.446 45.5348 291.08 48.1286 290.621 49.6655V49.6688ZM279.698 40.3505C279.055 34.7795 275.385 30.072 268.502 30.072C262.536 30.072 257.672 34.0094 256.019 40.3505H279.702H279.698Z" fill="white"/>
<path d="M320.133 45.158C325.534 45.158 329.912 40.5652 329.912 34.8995C329.912 29.2339 325.534 24.6411 320.133 24.6411C314.732 24.6411 310.354 29.2339 310.354 34.8995C310.354 40.5652 314.732 45.158 320.133 45.158Z" fill="white"/>
<path d="M320.133 24.4577C314.648 24.4577 310.185 29.1418 310.185 34.8995C310.185 40.6572 314.648 45.3414 320.133 45.3414C325.618 45.3414 330.081 40.6572 330.081 34.8995C330.081 29.1418 325.618 24.4577 320.133 24.4577Z" fill="#C20019"/>
<path d="M309.953 24.581V20.2703H297.928V69.7457H309.953V46.5916C309.953 46.4083 309.953 46.2282 309.959 46.0515L309.953 46.0449V45.218C307.487 42.5442 305.965 38.9036 305.965 34.8995C305.965 30.8955 307.487 27.2549 309.953 24.581Z" fill="white"/>
</svg>
