<svg width="384" height="115" viewBox="0 0 384 115" fill="none" xmlns="http://www.w3.org/2000/svg">
<g clip-path="url(#clip0_284_1299)">
<path d="M224.344 109.367H222.093V107.367C221.31 108.493 220.013 109.646 217.492 109.646C214.065 109.646 211.223 106.675 211.223 102.856C211.223 99.038 214.062 96.067 217.492 96.067C219.695 96.067 220.992 97.0921 221.875 98.1676V90.7632H224.348V109.367H224.344ZM213.718 102.856C213.718 105.239 215.433 107.185 217.784 107.185C220.135 107.185 221.85 105.239 221.85 102.856C221.85 100.473 220.112 98.5235 217.784 98.5235C215.455 98.5235 213.718 100.496 213.718 102.856Z" fill="#1C1C1A"/>
<path d="M229.756 90.5044C230.635 90.5044 231.349 91.2742 231.349 92.1679C231.349 93.0615 230.639 93.8352 229.756 93.8352C228.872 93.8352 228.188 93.0925 228.188 92.1679C228.188 91.2433 228.85 90.5044 229.756 90.5044ZM228.529 109.367V96.3498H230.975V109.367H228.529Z" fill="#1C1C1A"/>
<path d="M244.688 107.085C243.782 108.187 242.485 109.057 240.282 109.057C236.878 109.057 234.039 106.365 234.039 102.574C234.039 98.7826 236.878 96.0669 240.282 96.0669C242.829 96.0669 244.078 97.2197 244.862 98.3455V96.3493H247.138V108.292C247.138 112.88 244.2 114.903 240.674 114.903C237.392 114.903 235.558 113.29 234.749 111.649L236.782 110.419C237.344 111.417 238.545 112.52 240.652 112.52C242.88 112.52 244.666 111.239 244.666 108.547L244.692 107.085H244.688ZM244.666 102.574C244.666 100.218 242.929 98.5234 240.6 98.5234C238.271 98.5234 236.512 100.214 236.512 102.574C236.512 104.934 238.249 106.597 240.6 106.597C242.951 106.597 244.666 104.957 244.666 102.574Z" fill="#1C1C1A"/>
<path d="M252.546 90.5044C253.426 90.5044 254.139 91.2742 254.139 92.1679C254.139 93.0615 253.429 93.8352 252.546 93.8352C251.663 93.8352 250.979 93.0925 250.979 92.1679C250.979 91.2433 251.64 90.5044 252.546 90.5044ZM251.322 109.367V96.3498H253.769V109.367H251.322Z" fill="#1C1C1A"/>
<path d="M258.301 98.706H256.072V96.35H257.222C258.005 96.35 258.323 95.967 258.397 95.1972L258.593 92.6362H260.77V96.35H264.37V98.706H260.77V105.012C260.77 106.602 261.528 107.112 262.559 107.112C263.416 107.112 263.882 107.062 264.614 106.884V109.317C263.856 109.495 263.194 109.6 262.363 109.6C259.916 109.6 258.297 108.037 258.297 105.194V98.7099L258.301 98.706Z" fill="#1C1C1A"/>
<path d="M272.598 98.4741C270.786 98.4741 269.855 99.3716 269.219 100.346L267.164 99.0892C268.022 97.5766 269.563 96.064 272.598 96.064C275.632 96.064 277.569 97.9866 277.569 100.598V109.36H275.292V107.414C274.508 108.722 273.089 109.643 270.982 109.643C268.535 109.643 266.698 108.157 266.698 105.824C266.698 103.492 268.266 102.366 270.395 102.033L274.139 101.441C274.826 101.341 275.118 101.058 275.118 100.521C275.118 99.6733 274.361 98.4702 272.598 98.4702V98.4741ZM275.118 103.372L271.178 103.987C269.881 104.192 269.171 104.702 269.171 105.755C269.171 106.908 270.103 107.318 271.352 107.318C273.655 107.318 275.122 106.037 275.122 103.832V103.372H275.118Z" fill="#1C1C1A"/>
<path d="M281.509 109.367V90.7632H283.982V109.367H281.509Z" fill="#1C1C1A"/>
<path d="M302.466 107.085C301.56 108.187 300.263 109.057 298.06 109.057C294.656 109.057 291.817 106.365 291.817 102.574C291.817 98.7826 294.656 96.0669 298.06 96.0669C300.607 96.0669 301.856 97.2197 302.64 98.3455V96.3493H304.916V108.292C304.916 112.88 301.978 114.903 298.452 114.903C295.17 114.903 293.336 113.29 292.527 111.649L294.56 110.419C295.122 111.417 296.323 112.52 298.43 112.52C300.659 112.52 302.444 111.239 302.444 108.547L302.47 107.085H302.466ZM302.44 102.574C302.44 100.218 300.703 98.5234 298.374 98.5234C296.046 98.5234 294.286 100.214 294.286 102.574C294.286 104.934 296.024 106.597 298.374 106.597C300.725 106.597 302.44 104.957 302.44 102.574Z" fill="#1C1C1A"/>
<path d="M308.731 109.367V96.3496H310.982V98.9879C311.496 97.6068 312.697 96.0942 315.779 96.0942V98.837C312.353 98.837 311.178 100.965 311.178 103.425V109.371H308.731V109.367Z" fill="#1C1C1A"/>
<path d="M323.641 96.0669C327.337 96.0669 330.202 99.065 330.202 102.856C330.202 106.647 327.337 109.646 323.641 109.646C319.945 109.646 317.081 106.647 317.081 102.856C317.081 99.065 319.919 96.0669 323.641 96.0669ZM327.707 102.856C327.707 100.496 325.97 98.5234 323.641 98.5234C321.313 98.5234 319.575 100.496 319.575 102.856C319.575 105.216 321.29 107.185 323.641 107.185C325.992 107.185 327.707 105.239 327.707 102.856Z" fill="#1C1C1A"/>
<path d="M332.674 103.731V96.3501H335.121V103.372C335.121 106.087 336.271 107.217 338.034 107.217C339.797 107.217 340.946 106.091 340.946 103.372V96.3501H343.393V103.731C343.393 107.933 340.651 109.65 338.03 109.65C335.41 109.65 332.667 107.933 332.667 103.731H332.674Z" fill="#1C1C1A"/>
<path d="M347.019 96.3493H349.248V98.3455C350.032 97.2197 351.329 96.0669 353.876 96.0669C357.28 96.0669 360.118 99.0379 360.118 102.856C360.118 106.674 357.28 109.645 353.876 109.645C351.647 109.645 350.375 108.647 349.47 107.545V114.617H347.023V96.3454L347.019 96.3493ZM357.646 102.856C357.646 100.496 355.908 98.5234 353.58 98.5234C351.251 98.5234 349.492 100.496 349.492 102.856C349.492 105.216 351.229 107.185 353.58 107.185C355.931 107.185 357.646 105.239 357.646 102.856Z" fill="#1C1C1A"/>
<path d="M26.2019 35.5597C19.5969 35.5597 15.764 38.4572 12.8884 42.585L1.81111 35.8963C5.75119 28.3178 13.4207 22.2944 26.2019 22.2944C38.9832 22.2944 49.421 29.8729 49.421 42.585V80.9339H36.5326V72.9067C33.3392 78.4812 27.2664 82.1602 19.0647 82.1602C8.41241 82.1602 0 75.5837 0 65.216C0 54.8483 6.605 50.1673 16.8285 48.4922L31.0993 46.264C34.3999 45.7069 35.4681 44.3684 35.4681 42.3606C35.4681 39.2387 32.3782 35.5597 26.2019 35.5597ZM35.4681 55.8502L21.7296 57.9702C16.4035 58.7516 14.0601 60.7594 14.0601 64.3262C14.0601 68.1174 17.0429 69.7886 21.7296 69.7886C30.0385 69.7886 35.4681 64.7711 35.4681 57.4131V55.8541V55.8502Z" fill="#1C1C1A"/>
<path d="M113.985 80.9339H101.418V73.1311C97.3709 78.1486 92.3664 82.1603 82.6714 82.1603C67.8684 82.1603 55.6194 69.3399 55.6194 52.2834C55.6194 35.227 67.8684 22.2945 82.6714 22.2945C91.2982 22.2945 96.1993 25.7491 100.032 30.0973V0H113.985V80.9339ZM69.6795 52.2834C69.6795 60.9799 76.0701 68.0014 84.8041 68.0014C93.5381 68.0014 99.9287 60.9799 99.9287 52.2834C99.9287 43.5869 93.5381 36.4533 84.8041 36.4533C76.0701 36.4533 69.6795 43.5869 69.6795 52.2834Z" fill="#1C1C1A"/>
<path d="M147.051 35.5597C140.446 35.5597 136.613 38.4572 133.737 42.585L122.66 35.8963C126.6 28.3178 134.27 22.2944 147.051 22.2944C159.832 22.2944 170.27 29.8729 170.27 42.585V80.9339H157.381V72.9067C154.184 78.4812 148.115 82.1602 139.914 82.1602C129.261 82.1602 120.849 75.5837 120.849 65.216C120.849 54.8483 127.454 50.1673 137.677 48.4922L151.952 46.264C155.253 45.7069 156.321 44.3684 156.321 42.3606C156.321 39.2387 153.231 35.5597 147.054 35.5597H147.051ZM156.317 55.8502L142.578 57.9702C137.252 58.7516 134.909 60.7594 134.909 64.3262C134.909 68.1174 137.892 69.7886 142.578 69.7886C150.887 69.7886 156.317 64.7711 156.317 57.4131V55.8541V55.8502Z" fill="#1C1C1A"/>
<path d="M179.455 23.5208H191.918V31.3236C195.965 26.3061 201.077 22.2944 210.768 22.2944C225.575 22.2944 237.717 35.1148 237.717 52.2834C237.717 69.4521 225.575 82.1602 210.768 82.1602C202.142 82.1602 197.241 78.8139 193.408 74.3574V109.36H179.455V23.5208ZM223.76 52.1712C223.76 43.4747 217.37 36.4533 208.636 36.4533C199.902 36.4533 193.511 43.4747 193.511 52.1712C193.511 60.8677 199.902 68.0013 208.636 68.0013C217.37 68.0013 223.76 60.9799 223.76 52.1712Z" fill="#1C1C1A"/>
<path d="M248.621 37.1227H239.672V23.5247H243.934C247.449 23.5247 248.942 21.8535 249.26 18.1745L250.221 7.47412H262.685V23.5286H277.062V37.1266H262.685V60.2025C262.685 65.8892 265.771 67.8931 270.032 67.8931C273.44 67.8931 275.251 67.6688 278.127 66.9995V80.8218C274.719 81.6033 271.844 82.0482 267.475 82.0482C256.612 82.0482 248.624 75.3594 248.624 61.4249V37.1227H248.621Z" fill="#1C1C1A"/>
<path d="M337.224 57.6336H297.07C299.095 64.8794 305.164 68.8911 311.98 68.8911C317.517 68.8911 321.246 67.5526 326.04 63.7614L334.134 73.1271C327.426 79.371 320.396 82.1563 311.555 82.1563C294.833 82.1563 282.37 69.336 282.37 52.1673C282.37 34.9987 294.937 22.2905 311.555 22.2905C328.173 22.2905 338.182 35.2231 338.182 50.3839C338.182 52.8366 337.757 55.8463 337.224 57.6297V57.6336ZM324.55 46.821C323.804 40.3567 319.546 34.8943 311.558 34.8943C304.636 34.8943 298.992 39.463 297.073 46.821H324.554H324.55Z" fill="#1C1C1A"/>
<path d="M371.469 52.3998C377.736 52.3998 382.816 47.0704 382.816 40.4963C382.816 33.9222 377.736 28.5928 371.469 28.5928C365.202 28.5928 360.122 33.9222 360.122 40.4963C360.122 47.0704 365.202 52.3998 371.469 52.3998Z" fill="#1C1C1A"/>
<path d="M371.469 28.3799C365.104 28.3799 359.926 33.8152 359.926 40.4962C359.926 47.1772 365.104 52.6125 371.469 52.6125C377.834 52.6125 383.012 47.1772 383.012 40.4962C383.012 33.8152 377.834 28.3799 371.469 28.3799Z" fill="#C20019"/>
<path d="M359.656 28.523V23.521H345.703V80.9303H359.656V54.0632C359.656 53.8504 359.656 53.6415 359.664 53.4365L359.656 53.4288V52.4694C356.795 49.3668 355.029 45.1423 355.029 40.4962C355.029 35.8501 356.795 31.6256 359.656 28.523Z" fill="#1C1C1A"/>
</g>
<defs>
<clipPath id="clip0_284_1299">
<path d="M0 15C0 6.71574 6.71573 0 15 0H383.012V114.904H0V15Z" fill="white"/>
</clipPath>
</defs>
</svg>
