<svg width="1200" height="1200" viewBox="0 0 1200 1200" fill="none" xmlns="http://www.w3.org/2000/svg">
<rect width="1200" height="1200" fill="#8E1616"/>
<g clip-path="url(#clip0_197_245)">
<path d="M729.99 930.99C929.37 930.99 1091 782.799 1091 599.995C1091 417.192 929.37 269 729.99 269C530.609 269 368.979 417.192 368.979 599.995C368.979 782.799 530.609 930.99 729.99 930.99Z" fill="white"/>
<path d="M228.521 930.99C295.083 930.99 349.043 782.799 349.043 599.995C349.043 417.192 295.083 269 228.521 269C161.959 269 108 417.192 108 599.995C108 782.799 161.959 930.99 228.521 930.99Z" fill="white"/>
</g>
<defs>
<clipPath id="clip0_197_245">
<rect width="983" height="662" fill="white" transform="translate(108 269)"/>
</clipPath>
</defs>
</svg>
