<svg xmlns="http://www.w3.org/2000/svg" viewBox="0 0 120 120" fill="none">
  <defs>
    <linearGradient id="bg" x1="0" y1="0" x2="1" y2="1">
      <stop offset="0" stop-color="#d8e8dd"/>
      <stop offset="1" stop-color="#b8d5c2"/>
    </linearGradient>
    <linearGradient id="shirt" x1="0" y1="0" x2="1" y2="1">
      <stop offset="0" stop-color="#d77a6b"/>
      <stop offset="1" stop-color="#b55a4f"/>
    </linearGradient>
  </defs>
  <rect width="120" height="120" rx="60" fill="url(#bg)"/>
  <circle cx="60" cy="44" r="20" fill="#f0d0b4"/>
  <path d="M33 96c4-16 16-26 27-26s23 10 27 26" fill="url(#shirt)"/>
  <path d="M40 44c0-12 8-22 20-22s20 10 20 22c-4-6-9-9-20-9s-16 3-20 9Z" fill="#2f3b37"/>
  <circle cx="53" cy="44" r="2" fill="#2f3b37"/>
  <circle cx="67" cy="44" r="2" fill="#2f3b37"/>
  <path d="M54 55c2 3 10 3 12 0" stroke="#9f6b56" stroke-width="2" stroke-linecap="round"/>
</svg>
